<?xml version="1.0" encoding="UTF-8"?>
<svg version="1.1" xmlns="http://www.w3.org/2000/svg" width="1024" height="1024">
<path d="M0 0 C337.92 0 675.84 0 1024 0 C1024 337.92 1024 675.84 1024 1024 C686.08 1024 348.16 1024 0 1024 C0 686.08 0 348.16 0 0 Z " fill="#FDFEFE" transform="translate(0,0)"/>
<path d="M0 0 C0 38.28 0 76.56 0 116 C12.54 115.67 25.08 115.34 38 115 C33.359375 112.215625 33.359375 112.215625 28.625 109.375 C25.97735665 107.78641399 23.33075588 106.1981932 20.69775391 104.58544922 C18.87784846 103.51590478 17.01753956 102.51269294 15.12646484 101.57470703 C8.4252906 98.12006441 8.4252906 98.12006441 7.21630859 94.93603516 C7.01394697 92.58505419 7.1167459 90.46915259 7.375 88.125 C7.42011719 87.34125 7.46523438 86.5575 7.51171875 85.75 C7.62879186 83.83000105 7.80817608 81.9139764 8 80 C18.41039168 85.3338636 28.15610496 91.70423013 38 98 C40.65479955 99.69395379 43.31031557 101.38677556 45.96630859 103.07885742 C47.78224762 104.23577318 49.59767664 105.39348984 51.41259766 106.55200195 C56.46455842 109.77137128 61.53372792 112.96030281 66.625 116.1171875 C67.71981689 116.79676514 68.81463379 117.47634277 69.94262695 118.17651367 C72.06653207 119.49278833 74.19259356 120.80559143 76.32104492 122.11450195 C77.28115479 122.709646 78.24126465 123.30479004 79.23046875 123.91796875 C80.08020264 124.44156982 80.92993652 124.9651709 81.80541992 125.50463867 C84 127 84 127 87 130 C57.3 130 27.6 130 -3 130 C-3.66 131.65 -4.32 133.3 -5 135 C-5.99037316 136.97376706 -7.00541708 138.9352648 -8.0390625 140.88671875 C-8.61914062 141.98951172 -9.19921875 143.09230469 -9.796875 144.22851562 C-11.0221722 146.54689313 -12.24874851 148.86459503 -13.4765625 151.18164062 C-14.0540625 152.28056641 -14.6315625 153.37949219 -15.2265625 154.51171875 C-16.02441162 156.01931763 -16.02441162 156.01931763 -16.83837891 157.55737305 C-18.14315701 159.85023159 -18.14315701 159.85023159 -18 162 C-15.75116689 163.59395916 -15.75116689 163.59395916 -13 165.125 C-12.071875 165.66382813 -11.14375 166.20265625 -10.1875 166.7578125 C-9.465625 167.16773438 -8.74375 167.57765625 -8 168 C-9.50721148 171.76381862 -11.64916931 173.58463482 -14.8125 176.0625 C-15.8025 176.85140625 -16.7925 177.6403125 -17.8125 178.453125 C-18.33585937 178.86884766 -18.85921875 179.28457031 -19.3984375 179.71289062 C-22.07665963 181.8652667 -24.69379009 184.08841208 -27.3125 186.3125 C-27.84576904 186.76286621 -28.37903809 187.21323242 -28.9284668 187.67724609 C-31.92255219 190.21162546 -34.88847601 192.77424964 -37.83203125 195.3671875 C-38.78178833 196.19802856 -38.78178833 196.19802856 -39.75073242 197.0456543 C-40.97902575 198.12163093 -42.20207021 199.20363587 -43.41918945 200.29223633 C-47.66411377 204 -47.66411377 204 -51 204 C-50.89453857 203.22213135 -50.78907715 202.4442627 -50.68041992 201.64282227 C-48.30898487 184.11118767 -46.04743677 166.57304599 -44 149 C-39.18285158 150.51474072 -35.30695748 152.41582551 -31 155 C-30.73629734 154.28231351 -30.47259468 153.56462702 -30.20090103 152.82519245 C-28.96603957 149.92010602 -27.48715396 147.45314523 -25.7855835 144.79692078 C-15.73251848 128.35805165 -13.1018911 115.65406831 -13.765625 96.33203125 C-13.79480063 93.78528818 -13.81618516 91.23844538 -13.83026123 88.6915741 C-13.8858433 81.40408676 -14.03640424 74.12038367 -14.20450592 66.8348465 C-14.42892691 56.85866926 -14.580363 46.88334549 -14.65581512 36.90485191 C-14.702365 33.20493787 -14.81203559 29.51056385 -14.92633057 25.81221008 C-14.95519192 23.55167851 -14.98151509 21.29111261 -15.00488281 19.03051758 C-15.05347946 18.01184601 -15.10207611 16.99317444 -15.15214539 15.94363403 C-15.1461101 12.97665225 -15.02595492 10.78865934 -14 8 C-10.53425607 4.57065514 -5.10960903 0 0 0 Z " fill="#060606" transform="translate(462,446)"/>
<path d="M0 0 C0.66 0 1.32 0 2 0 C0.08589953 18.73374927 -2.28742743 37.36533314 -5 56 C-9.05429607 54.71203302 -12.37452246 53.21556961 -16 51 C-16.66 51 -17.32 51 -18 51 C-32.21572879 69.56415519 -35.49669248 87.02880089 -35.359375 110.12109375 C-35.35229019 111.37954731 -35.34520538 112.63800087 -35.33790588 113.93458939 C-35.26039078 122.43677642 -35.04781794 130.93317524 -34.80590057 139.43204498 C-34.52937968 149.35234043 -34.33332974 159.2711825 -34.23230743 169.19496346 C-34.17294058 172.86767218 -34.03839127 176.53235187 -33.89837646 180.20274353 C-33.54036636 195.74530977 -33.54036636 195.74530977 -36.18727112 199.83397293 C-39.29002802 202.97314192 -42.83280157 204.70296165 -47 206 C-47.66 206 -48.32 206 -49 206 C-49 167.72 -49 129.44 -49 90 C-60.88 90.33 -72.76 90.66 -85 91 C-81.308125 93.413125 -77.61625 95.82625 -73.8125 98.3125 C-72.6572583 99.06829346 -71.5020166 99.82408691 -70.31176758 100.6027832 C-69.39032959 101.20437256 -68.4688916 101.80596191 -67.51953125 102.42578125 C-66.58214111 103.03848877 -65.64475098 103.65119629 -64.67895508 104.2824707 C-62.02241982 106.0386287 -62.02241982 106.0386287 -59.18554688 107.48632812 C-58.46431641 107.98583984 -57.74308594 108.48535156 -57 109 C-56.62140441 111.94093052 -56.52224386 114.27644958 -56.6875 117.1875 C-56.71005859 117.93708984 -56.73261719 118.68667969 -56.75585938 119.45898438 C-56.81470843 121.3068447 -56.90439062 123.15367667 -57 125 C-60.55208977 123.67724536 -63.65350772 122.10330349 -66.859375 120.0859375 C-67.79724854 119.49804443 -68.73512207 118.91015137 -69.70141602 118.30444336 C-70.70744873 117.66772705 -71.71348145 117.03101074 -72.75 116.375 C-73.80695068 115.71056885 -74.86390137 115.0461377 -75.95288086 114.36157227 C-84.55540518 108.94286422 -93.10974242 103.44935807 -101.65722656 97.94433594 C-110.01153792 92.5829283 -118.47132017 87.40862183 -127.00610352 82.33959961 C-127.91158936 81.79698486 -128.8170752 81.25437012 -129.75 80.6953125 C-130.94882812 79.9839917 -130.94882812 79.9839917 -132.171875 79.25830078 C-134 78 -134 78 -135 76 C-105.63 76 -76.26 76 -46 76 C-45.34 74.02 -44.68 72.04 -44 70 C-43.03192421 68.06667711 -42.01644212 66.15654426 -40.9609375 64.26953125 C-40.09082031 62.69461914 -40.09082031 62.69461914 -39.203125 61.08789062 C-37.9775321 58.89203667 -36.75095859 56.69672977 -35.5234375 54.50195312 C-34.9459375 53.45587891 -34.3684375 52.40980469 -33.7734375 51.33203125 C-33.24153809 50.38046143 -32.70963867 49.4288916 -32.16162109 48.44848633 C-30.78568386 45.99993788 -30.78568386 45.99993788 -31 43 C-33.2269175 41.29803144 -33.2269175 41.29803144 -36 39.8125 C-37.3921875 39.01779297 -37.3921875 39.01779297 -38.8125 38.20703125 C-39.534375 37.80871094 -40.25625 37.41039062 -41 37 C-36.80971995 31.67721183 -32.21662081 27.60363959 -26.92578125 23.38671875 C-24.01925475 21.01570715 -21.25628692 18.54335488 -18.5 16 C-13.88168206 11.74716046 -9.10835287 7.74415726 -4.21484375 3.8125 C-1.97246433 2.03873643 -1.97246433 2.03873643 0 0 Z " fill="#060606" transform="translate(610,274)"/>
<path d="M0 0 C4.95 0 9.9 0 15 0 C18.34683921 3.50829477 19.73878311 5.47318456 21.6875 9.6875 C22.73657007 11.69682823 23.7860606 13.70593697 24.8359375 15.71484375 C25.35124023 16.75108887 25.86654297 17.78733398 26.39746094 18.85498047 C28.9899468 23.94279321 31.9204351 28.82853677 34.8125 33.75 C35.82517818 35.49121914 36.83224315 37.23572268 37.83203125 38.984375 C38.25202393 39.71366211 38.6720166 40.44294922 39.10473633 41.19433594 C40 43 40 43 40 45 C40.66 45 41.32 45 42 45 C42.26409668 44.12996338 42.52819336 43.25992676 42.80029297 42.36352539 C43.98780385 39.0341934 45.42074209 36.23525981 47.1953125 33.18359375 C48.1390271 31.55043213 48.1390271 31.55043213 49.10180664 29.88427734 C50.4653709 27.56126537 51.83109588 25.23971283 53.20092773 22.92041016 C57.44758981 15.77523087 57.44758981 15.77523087 61.27734375 8.40234375 C63.0625 4.875 63.0625 4.875 67 0 C71.62 0 76.24 0 81 0 C81 24.09 81 48.18 81 73 C76.05 73 71.1 73 66 73 C65.67 58.81 65.34 44.62 65 30 C59.91157723 39.27205199 59.91157723 39.27205199 54.82910156 48.54736328 C54.18315531 49.72179664 53.53700938 50.89612022 52.890625 52.0703125 C52.40311768 52.96351196 52.40311768 52.96351196 51.90576172 53.87475586 C50.9572405 55.59439232 49.97912186 57.29760097 49 59 C48.35772461 60.12519043 47.71544922 61.25038086 47.05371094 62.40966797 C45 65 45 65 42.640625 65.5859375 C41.85171875 65.51632812 41.0628125 65.44671875 40.25 65.375 C39.05117188 65.29378906 39.05117188 65.29378906 37.828125 65.2109375 C37.22484375 65.14132812 36.6215625 65.07171875 36 65 C35.60208252 64.28457031 35.20416504 63.56914063 34.79418945 62.83203125 C33.29551702 60.13986267 31.79497195 57.44874861 30.29321289 54.75830078 C29.33273062 53.03627108 28.37435026 51.31306956 27.41601562 49.58984375 C26.80048828 48.48769531 26.18496094 47.38554688 25.55078125 46.25 C24.71027222 44.74179687 24.71027222 44.74179687 23.8527832 43.203125 C21.66091432 39.41378257 19.32012478 35.71219965 17 32 C16.67 45.53 16.34 59.06 16 73 C10.72 73 5.44 73 0 73 C0 48.91 0 24.82 0 0 Z " fill="#060607" transform="translate(349,698)"/>
<path d="M0 0 C6.73469388 2.24489796 6.73469388 2.24489796 10.046875 3.59375 C10.79743164 3.89732422 11.54798828 4.20089844 12.32128906 4.51367188 C13.12276367 4.83916016 13.92423828 5.16464844 14.75 5.5 C27.10817518 10.48473097 39.55312203 15.24210894 52 20 C49.98178459 22.01821541 48.74081495 22.66807968 46.15209961 23.73999023 C45.36044907 24.07050888 44.56879852 24.40102753 43.75315857 24.74156189 C42.89488968 25.0936824 42.03662079 25.44580292 41.15234375 25.80859375 C40.26648087 26.1759816 39.38061798 26.54336945 38.46791077 26.92189026 C36.58839972 27.70007135 34.70787039 28.47579682 32.82641602 29.24926758 C29.97090916 30.42375857 27.11902974 31.60671848 24.26757812 32.79101562 C22.43771134 33.54738649 20.60763943 34.30326133 18.77734375 35.05859375 C17.93324448 35.40869003 17.0891452 35.75878632 16.21946716 36.11949158 C10.87512218 38.31098422 5.49801379 40.22761625 0 42 C0 37.38 0 32.76 0 28 C-32.04850691 26.52785498 -32.04850691 26.52785498 -59.69091797 41.13964844 C-63.36383884 44.09880017 -67.35305577 46.48722461 -71.375 48.9375 C-72.92593509 49.91305377 -74.47539218 50.89096084 -76.0234375 51.87109375 C-82.69549324 56.07116769 -89.38481995 60.24363594 -96.07299805 64.41796875 C-102.45727269 68.40448763 -108.82818906 72.41129399 -115.1875 76.4375 C-122.42279869 81.01805507 -129.69515542 85.5311539 -137 90 C-142.94 86.535 -142.94 86.535 -149 83 C-146.99451667 78.98903333 -146.47299755 78.33567471 -142.87890625 76.1875 C-141.61409424 75.41974243 -141.61409424 75.41974243 -140.32373047 74.63647461 C-138.95692139 73.82641968 -138.95692139 73.82641968 -137.5625 73 C-135.6388074 71.83548658 -133.71564076 70.67010394 -131.79296875 69.50390625 C-130.33383057 68.62436279 -130.33383057 68.62436279 -128.84521484 67.72705078 C-124.65469911 65.18339982 -120.51306842 62.5653213 -116.375 59.9375 C-114.80341983 58.94265396 -113.23180528 57.94786225 -111.66015625 56.953125 C-110.10676494 55.96875931 -108.55337947 54.98438438 -107 54 C-93.56502684 45.4930014 -80.09393903 37.04506024 -66.60400391 28.62548828 C-63.06840796 26.41847555 -59.53413178 24.2093564 -56 22 C-56.48895752 21.58322998 -56.97791504 21.16645996 -57.48168945 20.73706055 C-59.98156499 17.87701642 -59.31027679 14.41710065 -59.1875 10.8125 C-59.16719727 9.68811523 -59.16719727 9.68811523 -59.14648438 8.54101562 C-59.11118539 6.69370233 -59.05737917 4.84675934 -59 3 C-57.28969148 3.91297608 -55.58185105 4.83057624 -53.875 5.75 C-52.92367187 6.26046875 -51.97234375 6.7709375 -50.9921875 7.296875 C-48 9 -48 9 -45.42382812 11.06835938 C-40.89781473 13.62182614 -37.33599848 13.60230344 -32.2265625 13.609375 C-30.8409462 13.63417938 -30.8409462 13.63417938 -29.42733765 13.65948486 C-26.4931567 13.70785236 -23.55949362 13.72931083 -20.625 13.75 C-18.62888035 13.77816909 -16.63278471 13.80809782 -14.63671875 13.83984375 C-9.75785515 13.91360839 -4.87927714 13.96325178 0 14 C0 9.38 0 4.76 0 0 Z " fill="#070708" transform="translate(668,435)"/>
<path d="M0 0 C4.14423786 1.70046123 7.24356266 4.6417086 10.5625 7.5625 C11.82343549 8.65715289 13.08516196 9.75089528 14.34765625 10.84375 C14.96914551 11.38257813 15.59063477 11.92140625 16.23095703 12.4765625 C24.90770049 19.94866838 33.97781974 26.95347965 43 34 C41.76736651 37.69790046 40.79947549 37.9354846 37.4375 39.6875 C36.61121094 40.12449219 35.78492188 40.56148438 34.93359375 41.01171875 C33.97646484 41.50091797 33.97646484 41.50091797 33 42 C34.27530505 46.1171534 35.81516242 49.80008481 37.86328125 53.58984375 C38.42080078 54.62173828 38.97832031 55.65363281 39.55273438 56.71679688 C40.13345703 57.77962891 40.71417969 58.84246094 41.3125 59.9375 C41.88162109 60.99646484 42.45074219 62.05542969 43.03710938 63.14648438 C44.65347438 66.12126406 46.30759836 69.06789565 48 72 C48.39993164 72.69730225 48.79986328 73.39460449 49.21191406 74.11303711 C52.47857416 79.24826611 56.88736489 81.76847592 62.125 84.6875 C63.92956992 85.73102723 65.73292714 86.776654 67.53515625 87.82421875 C68.44797363 88.35063965 69.36079102 88.87706055 70.30126953 89.41943359 C74.45036465 91.84943557 78.50807366 94.41606026 82.5625 97 C83.34343018 97.49604736 84.12436035 97.99209473 84.92895508 98.50317383 C86.50452313 99.50433126 88.07963915 100.50620044 89.65429688 101.50878906 C92.75541771 103.48023432 95.86383675 105.43999615 98.97241211 107.3996582 C121.99482365 121.91446602 121.99482365 121.91446602 130.33862305 127.33813477 C132.21340238 128.50881845 134.1320666 129.61062442 136.07739258 130.65991211 C143.52747487 134.83040048 143.52747487 134.83040048 144.86669922 138.14526367 C145.08370553 140.50552648 144.975562 142.58667238 144.6875 144.9375 C144.61305664 146.10635742 144.61305664 146.10635742 144.53710938 147.29882812 C144.4085866 149.20330193 144.21126073 151.10292133 144 153 C135.7194302 148.37163273 127.77713403 143.30660135 119.84301758 138.11474609 C111.73509385 132.81204782 103.55218914 127.63489835 95.35009766 122.47949219 C93.0055066 121.00346665 90.66430915 119.5222115 88.32421875 118.0390625 C76.59994903 110.61060613 64.81348441 103.2856619 53 96 C52.7834375 97.07378906 52.566875 98.14757812 52.34375 99.25390625 C50.76275508 103.66138917 49.48029377 104.62788217 45.5 106.9375 C44.5203125 107.52402344 43.540625 108.11054688 42.53125 108.71484375 C40 110 40 110 38 110 C38.03778564 109.2471875 38.07557129 108.494375 38.11450195 107.71875 C38.86051728 88.31940867 36.30379147 75.86569313 25.53271484 59.36035156 C23.55180838 56.30979348 21.77153031 53.17563211 20 50 C18.84371094 50.54140625 18.84371094 50.54140625 17.6640625 51.09375 C16.66117187 51.5578125 15.65828125 52.021875 14.625 52.5 C13.62726563 52.9640625 12.62953125 53.428125 11.6015625 53.90625 C9 55 9 55 7 55 C5.28801162 43.4620903 3.7103247 31.9306035 2.47265625 20.33203125 C1.74510738 13.54311981 0.86728621 6.7722136 0 0 Z " fill="#060606" transform="translate(410,278)"/>
<path d="M0 0 C2.4216513 1.06304772 4.53492058 2.33869692 6.734375 3.80859375 C7.93320312 4.59556641 7.93320312 4.59556641 9.15625 5.3984375 C9.75953125 5.88441406 10.3628125 6.37039063 10.984375 6.87109375 C10.984375 7.53109375 10.984375 8.19109375 10.984375 8.87109375 C9.58935547 9.97753906 9.58935547 9.97753906 7.6015625 11.19921875 C6.48612061 11.89325806 6.48612061 11.89325806 5.34814453 12.60131836 C4.11620361 13.35360718 4.11620361 13.35360718 2.859375 14.12109375 C1.10378273 15.21031891 -0.65141017 16.300188 -2.40625 17.390625 C-3.32857422 17.96119629 -4.25089844 18.53176758 -5.20117188 19.11962891 C-9.79019692 21.97542919 -14.337599 24.89589172 -18.890625 27.80859375 C-34.53620941 37.78167827 -50.34052384 47.49139756 -66.20288086 57.11523438 C-71.49836593 60.32925438 -76.77061845 63.57528659 -82.015625 66.87109375 C-81.36078125 67.18691406 -80.7059375 67.50273437 -80.03125 67.828125 C-77.70370855 70.18724162 -77.71364674 70.70511267 -77.625 73.8828125 C-77.65153741 75.44188514 -77.69916901 77.00071206 -77.765625 78.55859375 C-77.78367187 79.35587891 -77.80171875 80.15316406 -77.8203125 80.97460938 C-77.86740253 82.94061824 -77.93914601 84.90600869 -78.015625 86.87109375 C-80.583866 85.72281442 -82.64542543 84.41211345 -84.93383789 82.74438477 C-95.79454352 74.98894195 -105.41494633 74.60428368 -118.453125 74.80859375 C-120.360037 74.80551102 -122.26694692 74.79837531 -124.17382812 74.78710938 C-128.78906879 74.76849551 -133.40086271 74.80430576 -138.015625 74.87109375 C-138.015625 79.49109375 -138.015625 84.11109375 -138.015625 88.87109375 C-144.76622833 87.74599319 -144.76622833 87.74599319 -147.85864258 86.53588867 C-148.54988724 86.26858444 -149.2411319 86.00128021 -149.95332336 85.72587585 C-150.68157822 85.43735245 -151.40983307 85.14882904 -152.16015625 84.8515625 C-152.92937912 84.55171951 -153.69860199 84.25187653 -154.49113464 83.94294739 C-156.11340071 83.30933142 -157.73458477 82.67293892 -159.35473633 82.03393555 C-161.80771243 81.06664313 -164.26384185 80.10776604 -166.72070312 79.15039062 C-174.22783116 76.21543444 -181.69323364 73.24738803 -189.015625 69.87109375 C-186.4426409 66.80975289 -183.61295944 65.67959245 -179.94140625 64.19921875 C-178.11379761 63.45430176 -178.11379761 63.45430176 -176.24926758 62.69433594 C-174.94225612 62.16983199 -173.63520796 61.64541948 -172.328125 61.12109375 C-169.69142353 60.05132565 -167.05670499 58.97671142 -164.421875 57.90234375 C-163.77696609 57.64024109 -163.13205719 57.37813843 -162.46760559 57.10809326 C-156.14676635 54.53324217 -149.91202965 51.78676502 -143.69140625 48.98046875 C-141.015625 47.87109375 -141.015625 47.87109375 -139.015625 47.87109375 C-139.015625 52.49109375 -139.015625 57.11109375 -139.015625 61.87109375 C-108.65511469 63.58904444 -108.65511469 63.58904444 -82.37060547 50.72900391 C-77.64384553 46.99993039 -72.36270647 44.0803711 -67.203125 40.99609375 C-64.96646921 39.62741816 -62.732075 38.25503966 -60.5 36.87890625 C-58.86321289 35.87005371 -58.86321289 35.87005371 -57.19335938 34.84082031 C-48.745761 29.60455543 -40.38226064 24.23536839 -32.015625 18.87109375 C-29.1913413 17.06163033 -26.36703504 15.25220264 -23.54237366 13.44332886 C-20.76890372 11.66723554 -17.99603709 9.89022799 -15.22436523 8.11132812 C-13.72691772 7.15129883 -13.72691772 7.15129883 -12.19921875 6.171875 C-11.31806396 5.60637939 -10.43690918 5.04088379 -9.52905273 4.45825195 C-8.69962158 3.93448975 -7.87019043 3.41072754 -7.015625 2.87109375 C-6.12528564 2.30535645 -5.23494629 1.73961914 -4.31762695 1.15673828 C-2.015625 -0.12890625 -2.015625 -0.12890625 0 0 Z " fill="#060606" transform="translate(493.015625,401.12890625)"/>
<path d="M0 0 C3.41939472 1.27658906 6.39484503 2.74913229 9.45703125 4.73046875 C10.73586182 5.55212524 10.73586182 5.55212524 12.04052734 6.39038086 C13.41265381 7.27995483 13.41265381 7.27995483 14.8125 8.1875 C16.80021792 9.46441901 18.78851934 10.74043006 20.77734375 12.015625 C22.31817627 13.0046582 22.31817627 13.0046582 23.89013672 14.01367188 C28.86319839 17.19005983 33.86780018 20.31530074 38.875 23.4375 C39.86612793 24.05616943 40.85725586 24.67483887 41.87841797 25.31225586 C45.95823596 27.85810708 50.0393849 30.40181312 54.12158203 32.94384766 C66.82105372 40.85255996 79.4762501 48.81532106 92 57 C91.88914062 55.7728125 91.77828125 54.545625 91.6640625 53.28125 C91.66563325 49.71879875 91.77692332 49.24172858 94.3359375 46.46875 C95.33882812 45.8190625 96.34171875 45.169375 97.375 44.5 C98.37273437 43.8296875 99.37046875 43.159375 100.3984375 42.46875 C103 41 103 41 105 41 C104.91190063 42.0209375 104.91190063 42.0209375 104.82202148 43.0625 C103.22479734 66.41341243 111.00059248 81.63253523 123 101 C126.35192796 99.90801214 129.64745056 98.79512175 132.875 97.375 C134.421875 96.694375 134.421875 96.694375 136 96 C137.80043917 105.48231297 139.30949347 114.91921363 140.29589844 124.5222168 C140.77123125 129.10556831 141.37977424 133.63797493 142.125 138.1875 C142.83050151 142.54176714 143.20483082 146.59613731 143 151 C138.97553599 149.32965207 135.97516844 146.53467997 132.75 143.6875 C127.46946966 139.09350191 122.12423318 134.59569674 116.6875 130.1875 C116.01428711 129.64077637 115.34107422 129.09405273 114.64746094 128.53076172 C110.30277033 125.01664221 105.90529781 121.58506088 101.40625 118.26953125 C100.71015625 117.64111328 100.71015625 117.64111328 100 117 C100 116.34 100 115.68 100 115 C101.45537568 114.16151196 102.91440373 113.32936066 104.375 112.5 C105.18710937 112.0359375 105.99921875 111.571875 106.8359375 111.09375 C109 110 109 110 111 110 C109.15178068 106.25709775 107.29038704 102.52183094 105.40625 98.796875 C103.75790363 95.53531096 102.16369859 92.25306549 100.59375 88.953125 C96.05522846 79.60538216 92.51346152 72.90288729 83 68 C81.30367975 66.98502165 79.6077858 65.96925275 77.91967773 64.94067383 C76.0130551 63.78246386 74.09528271 62.64453097 72.17578125 61.5078125 C65.16735403 57.3278161 58.30498121 52.9102612 51.41748047 48.53515625 C47.55242672 46.08075734 43.6829217 43.63342281 39.8125 41.1875 C39.05138916 40.70627686 38.29027832 40.22505371 37.50610352 39.72924805 C29.72186716 34.81335185 21.91091335 29.94024744 14.0949707 25.07495117 C12.20361281 23.89571185 10.31738153 22.70819176 8.4375 21.51074219 C6.10431216 20.01927387 6.10431216 20.01927387 3.984375 18.96582031 C2.32421875 18.078125 2.32421875 18.078125 0 16 C-0.45895455 12.95254181 -0.5817278 10.7502035 -0.375 7.75 C-0.34792969 7.00492187 -0.32085937 6.25984375 -0.29296875 5.4921875 C-0.22250808 3.66021007 -0.11488993 1.82972849 0 0 Z " fill="#050505" transform="translate(470,496)"/>
<path d="M0 0 C14 0 14 0 18.04296875 3.2265625 C19.13589645 4.65965979 20.18321093 6.12844988 21.1875 7.625 C22.04746582 8.78273926 22.04746582 8.78273926 22.92480469 9.96386719 C24.09217986 11.53830045 25.24237722 13.12562457 26.37451172 14.72558594 C28.71337269 17.99816461 31.23275043 21.11424706 33.75 24.25 C38.87553767 30.80118391 43.92810978 37.40654272 49 44 C49.33 29.48 49.66 14.96 50 0 C55.28 0 60.56 0 66 0 C66 24.09 66 48.18 66 73 C52 73 52 73 47.4375 68.5 C46.35240133 66.93263526 45.26916337 65.36359067 44.22070312 63.77148438 C41.92057001 60.4335312 39.27193447 57.3691842 36.6875 54.25 C35.58022506 52.88948884 34.4747703 51.52749438 33.37109375 50.1640625 C32.8179248 49.48118164 32.26475586 48.79830078 31.69482422 48.09472656 C28.87459321 44.60904779 26.05846482 41.12016742 23.25 37.625 C22.47982544 36.67028809 22.47982544 36.67028809 21.6940918 35.69628906 C18.11611022 31.23222044 18.11611022 31.23222044 17 29 C16.67 43.52 16.34 58.04 16 73 C10.72 73 5.44 73 0 73 C0 48.91 0 24.82 0 0 Z " fill="#030304" transform="translate(644,698)"/>
<path d="M0 0 C1.58206057 0.00667536 3.16410534 0.0186375 4.74609375 0.03515625 C5.55240234 0.03966797 6.35871094 0.04417969 7.18945312 0.04882812 C9.18753131 0.06065107 11.18557158 0.07858711 13.18359375 0.09765625 C18.46661157 11.30826813 23.57325332 22.59196041 28.62109375 33.91015625 C29.34038521 35.52023125 30.05978597 37.13025743 30.77929688 38.74023438 C32.20264061 41.92558296 33.62337341 45.11207834 35.04248047 48.29931641 C36.51973369 51.61548608 38.00720439 54.92685939 39.50048828 58.23583984 C39.87271011 59.06411789 40.24493195 59.89239594 40.62843323 60.74577332 C41.3409309 62.33117662 42.05625609 63.91531304 42.77476501 65.4980011 C45.18359375 70.87201931 45.18359375 70.87201931 45.18359375 73.09765625 C39.57359375 73.09765625 33.96359375 73.09765625 28.18359375 73.09765625 C22.18359375 60.47265625 22.18359375 60.47265625 22.18359375 57.09765625 C10.63359375 57.09765625 -0.91640625 57.09765625 -12.81640625 57.09765625 C-13.80640625 60.39765625 -14.79640625 63.69765625 -15.81640625 67.09765625 C-16.47640625 69.07765625 -17.13640625 71.05765625 -17.81640625 73.09765625 C-23.42640625 73.09765625 -29.03640625 73.09765625 -34.81640625 73.09765625 C-33.69155907 66.34857315 -33.69155907 66.34857315 -32.22509766 63.15722656 C-31.89994675 62.43991867 -31.57479584 61.72261078 -31.23979187 60.98356628 C-30.70923943 59.84121269 -30.70923943 59.84121269 -30.16796875 58.67578125 C-29.79916092 57.8657515 -29.43035309 57.05572174 -29.05036926 56.22114563 C-28.26131798 54.48934305 -27.46920009 52.75893496 -26.67428589 51.02981567 C-24.60671344 46.53176189 -22.56104722 42.02378486 -20.515625 37.515625 C-20.11032059 36.6233873 -19.70501617 35.7311496 -19.28742981 34.81187439 C-15.33007856 26.07476548 -11.57622984 17.2615974 -7.90283203 8.40136719 C-7.50177246 7.43618164 -7.10071289 6.47099609 -6.6875 5.4765625 C-6.3464624 4.64713135 -6.0054248 3.8177002 -5.65405273 2.96313477 C-4.15338841 -0.37891598 -4.11494847 0.10529551 0 0 Z " fill="#050505" transform="translate(475.81640625,697.90234375)"/>
<path d="M0 0 C2.00440376 1.55341291 3.80654509 3.05588343 5.5 4.9375 C4.09155282 8.15274305 2.39655214 10.25933868 -0.125 12.6875 C-0.75664063 13.30109375 -1.38828125 13.9146875 -2.0390625 14.546875 C-2.52117188 15.00578125 -3.00328125 15.4646875 -3.5 15.9375 C-4.180625 15.4321875 -4.86125 14.926875 -5.5625 14.40625 C-14.22514521 8.60043459 -21.26409532 7.27020831 -31.5 8.9375 C-36.91685039 10.8886577 -41.03200232 13.60447729 -44.0625 18.5625 C-47.40981438 26.42141202 -47.68347273 34.7608161 -44.6796875 42.828125 C-41.62236141 48.29486702 -36.41880693 52.0927906 -30.5 53.9375 C-27.35021367 54.25245693 -27.35021367 54.25245693 -24.0625 54.1875 C-22.97066406 54.19265625 -21.87882813 54.1978125 -20.75390625 54.203125 C-16.96560132 54.0238033 -16.96560132 54.0238033 -11.5 51.9375 C-11.17 44.6775 -10.84 37.4175 -10.5 29.9375 C-5.55 29.9375 -0.6 29.9375 4.5 29.9375 C4.5 40.1675 4.5 50.3975 4.5 60.9375 C-10.02959073 67.64346495 -24.69527593 72.59684069 -40.5625 67.375 C-50.64813778 62.95093189 -57.60469442 56.04497913 -61.75390625 45.859375 C-65.34653623 35.29428892 -66.09603628 25.30720462 -61.5 14.9375 C-57.48797429 7.69628286 -52.49884826 2.34245124 -45.5 -2.0625 C-44.82066406 -2.49691406 -44.14132812 -2.93132813 -43.44140625 -3.37890625 C-30.57946508 -9.95890111 -11.84627156 -7.39321526 0 0 Z " fill="#050506" transform="translate(588.5,703.0625)"/>
<path d="M0 0 C0.33 0 0.66 0 1 0 C1.33 11.22 1.66 22.44 2 34 C5.114375 31.97875 8.22875 29.9575 11.4375 27.875 C12.39970459 27.25093262 13.36190918 26.62686523 14.35327148 25.98388672 C15.14290283 25.47100098 15.93253418 24.95811523 16.74609375 24.4296875 C17.61991699 23.86314453 18.49374023 23.29660156 19.39404297 22.71289062 C21.12860582 21.57276575 22.85179896 20.41514889 24.56298828 19.24023438 C25.35817871 18.69431641 26.15336914 18.14839844 26.97265625 17.5859375 C28.03045288 16.84802979 28.03045288 16.84802979 29.10961914 16.09521484 C31 15 31 15 34 14.75 C38.40036621 16.58348592 42.15462184 19.20569187 46 22 C43.57679329 24.64399889 40.92826427 26.45239272 37.90625 28.37109375 C36.3756897 29.34671265 36.3756897 29.34671265 34.81420898 30.34204102 C33.72052002 31.03354248 32.62683105 31.72504395 31.5 32.4375 C30.35926311 33.16237497 29.21872137 33.88755715 28.07836914 34.61303711 C24.72189659 36.74675456 21.3610525 38.87350471 18 41 C16.32151556 42.0649481 14.64311923 43.13003512 12.96484375 44.1953125 C1.2292936 51.63398799 -10.55523462 58.9949959 -22.34814453 66.34228516 C-24.67402698 67.79622935 -26.99303097 69.26017281 -29.30859375 70.73046875 C-29.91590332 71.11299805 -30.52321289 71.49552734 -31.14892578 71.88964844 C-32.67080039 72.8482463 -34.18910403 73.81250742 -35.70703125 74.77734375 C-38 76 -38 76 -41 76 C-31.50688913 57.30387671 -21.94506267 38.70974767 -11.45947266 20.54589844 C-8.99228678 16.24214897 -6.5899977 11.90259313 -4.1875 7.5625 C-3.54651367 6.40609009 -3.54651367 6.40609009 -2.89257812 5.22631836 C-1.92757971 3.48465841 -0.96365227 1.74240512 0 0 Z " fill="#070707" transform="translate(435,371)"/>
<path d="M0 0 C0.99 0.495 0.99 0.495 2 1 C-2.66106406 9.71750208 -7.32852957 18.43154909 -12.00292969 27.14190674 C-12.93321626 28.87554497 -13.86310779 30.60939517 -14.79296875 32.34326172 C-21.13459368 44.15620116 -27.56942438 55.89937609 -34.30737305 67.49194336 C-35.01373901 68.71216187 -35.01373901 68.71216187 -35.734375 69.95703125 C-36.14913086 70.66835205 -36.56388672 71.37967285 -36.99121094 72.11254883 C-38.13563921 74.12643777 -38.13563921 74.12643777 -39 77 C-39.66 77 -40.32 77 -41 77 C-41 65.78 -41 54.56 -41 43 C-45.00125 45.5575 -49.0025 48.115 -53.125 50.75 C-54.37555176 51.54889648 -55.62610352 52.34779297 -56.91455078 53.17089844 C-57.91470215 53.8105957 -58.91485352 54.45029297 -59.9453125 55.109375 C-60.96125488 55.75874023 -61.97719727 56.40810547 -63.02392578 57.07714844 C-65.12095248 58.43204444 -67.18747725 59.83473458 -69.22998047 61.27050781 C-72 63 -72 63 -74.375 62.5625 C-77.95496122 60.4315707 -81.50687663 58.27096358 -85 56 C-83.7546389 52.26391669 -82.62897604 51.8657773 -79.3203125 49.84765625 C-78.33828857 49.24219971 -77.35626465 48.63674316 -76.34448242 48.01293945 C-74.75083862 47.04747192 -74.75083862 47.04747192 -73.125 46.0625 C-70.91509946 44.70355605 -68.70546701 43.34417603 -66.49609375 41.984375 C-65.39378418 41.30955078 -64.29147461 40.63472656 -63.15576172 39.93945312 C-58.80898129 37.26802935 -54.49568184 34.54557869 -50.1875 31.8125 C-48.64592024 30.83710221 -47.10425403 29.86184105 -45.5625 28.88671875 C-44.8096875 28.41024902 -44.056875 27.9337793 -43.28125 27.44287109 C-40.98026167 25.98751567 -38.67786895 24.53440882 -36.375 23.08203125 C-35.6025293 22.59460449 -34.83005859 22.10717773 -34.03417969 21.60498047 C-32.48070383 20.62524986 -30.92667483 19.64639572 -29.37207031 18.66845703 C-24.88842398 15.84318382 -20.42803805 12.98547224 -15.984375 10.09765625 C-14.97802002 9.44716309 -13.97166504 8.79666992 -12.93481445 8.12646484 C-10.96291592 6.85084229 -8.9951663 5.56877926 -7.03198242 4.27978516 C-6.14357666 3.70663574 -5.2551709 3.13348633 -4.33984375 2.54296875 C-3.54956787 2.02758545 -2.75929199 1.51220215 -1.94506836 0.98120117 C-1.3031958 0.65740479 -0.66132324 0.3336084 0 0 Z " fill="#070708" transform="translate(628,477)"/>
<path d="M0 0 C3.27715669 3.27715669 5.11072573 5.55939849 7.36328125 9.453125 C7.99564697 10.53585693 8.6280127 11.61858887 9.27954102 12.73413086 C9.61075958 13.30710907 9.94197815 13.88008728 10.28323364 14.47042847 C12.04462805 17.51582806 13.82665683 20.54907898 15.609375 23.58203125 C15.97301651 24.20126968 16.33665802 24.82050812 16.71131897 25.45851135 C20.95210078 32.65525798 25.39389017 39.72302925 29.86254883 46.78027344 C34.06444814 53.43283725 38.07415954 60.18096478 42 67 C38.39123222 65.65955449 35.24662771 64.04126264 31.98828125 61.99609375 C31.06595703 61.42052734 30.14363281 60.84496094 29.19335938 60.25195312 C28.24267578 59.65318359 27.29199219 59.05441406 26.3125 58.4375 C24.41317458 57.24803633 22.51345471 56.05920221 20.61328125 54.87109375 C19.77579346 54.34443115 18.93830566 53.81776855 18.07543945 53.27514648 C16.04558357 51.98646643 16.04558357 51.98646643 14 51 C14.0628418 52.05388916 14.12568359 53.10777832 14.19042969 54.19360352 C14.4086248 58.12659023 14.54570238 62.05905345 14.65917969 65.99633789 C14.71931544 67.69549631 14.80106293 69.39403887 14.90527344 71.09106445 C15.58428665 82.43790782 15.58428665 82.43790782 14 87 C10.45603103 90.62415811 6.8080534 92.48036271 2 94 C1.34 94 0.68 94 0 94 C0 62.98 0 31.96 0 0 Z " fill="#080808" transform="translate(587,369)"/>
<path d="M0 0 C0 31.02 0 62.04 0 94 C-4.49339445 88.38325694 -4.49339445 88.38325694 -6.3046875 85.34765625 C-6.71565674 84.66541992 -7.12662598 83.98318359 -7.55004883 83.28027344 C-7.98728271 82.5484082 -8.4245166 81.81654297 -8.875 81.0625 C-14.80817202 71.24500657 -20.96075091 61.57490785 -27.14013672 51.91113281 C-30.39246848 46.82045233 -33.63298873 41.72225668 -36.875 36.625 C-38.05984548 34.76298879 -39.24473648 32.90100655 -40.4296875 31.0390625 C-41.28645833 29.69270833 -42.14322917 28.34635417 -43 27 C-39.18034774 27 -38.23898277 28.11424521 -35.25 30.4375 C-30.69678452 33.87310804 -26.02054585 36.88887828 -21.109375 39.78515625 C-20.42214355 40.19382935 -19.73491211 40.60250244 -19.02685547 41.02355957 C-17.35288318 42.01848136 -15.67667453 43.00963889 -14 44 C-14.07855225 42.41916626 -14.07855225 42.41916626 -14.15869141 40.80639648 C-14.34053843 36.87302547 -14.45477425 32.94001914 -14.54931641 29.00366211 C-14.59942129 27.30478335 -14.66753346 25.60633199 -14.75439453 23.90893555 C-15.45913564 9.77680365 -15.45913564 9.77680365 -11.79980469 5.32080078 C-9.25619594 3.53002334 -6.86709351 2.19101496 -4 1 C-2 0 -2 0 0 0 Z " fill="#070707" transform="translate(436,462)"/>
<path d="M0 0 C5.61 0 11.22 0 17 0 C17 24.09 17 48.18 17 73 C11.39 73 5.78 73 0 73 C0 48.91 0 24.82 0 0 Z " fill="#070707" transform="translate(609,698)"/>
<path d="M0 0 C5.28 0 10.56 0 16 0 C16 24.09 16 48.18 16 73 C10.72 73 5.44 73 0 73 C0 48.91 0 24.82 0 0 Z " fill="#020202" transform="translate(315,698)"/>
<path d="M0 0 C14.75092792 -2.06512991 14.75092792 -2.06512991 19.93359375 1.22900391 C23.99446628 4.93420478 27.01634653 9.41636235 30 14 C31.0209375 15.45212891 31.0209375 15.45212891 32.0625 16.93359375 C33.43916519 18.92529686 34.74992177 20.92750189 36 23 C29.9926122 22.32096424 24.1096715 21.33624819 18.1875 20.125 C17.34251953 19.96386719 16.49753906 19.80273438 15.62695312 19.63671875 C14.81548828 19.47042969 14.00402344 19.30414062 13.16796875 19.1328125 C12.43860107 18.98730957 11.7092334 18.84180664 10.95776367 18.69189453 C7.35937294 17.42018492 6.12922264 15.24681209 4.39453125 11.93359375 C3.87246094 10.77988281 3.35039063 9.62617187 2.8125 8.4375 C2.28269531 7.28121094 1.75289062 6.12492188 1.20703125 4.93359375 C0 2 0 2 0 0 Z " fill="#0C0D0D" transform="translate(610,523)"/>
<path d="M0 0 C2.66979523 0.31557863 5.33472337 0.64911218 8 1 C9.2998584 1.16918945 9.2998584 1.16918945 10.62597656 1.34179688 C27.50888394 3.74595159 27.50888394 3.74595159 31.59570312 7.44384766 C34.99055682 12.19749296 36 17.27864788 36 23 C21.46049857 24.66984993 21.46049857 24.66984993 15.9609375 20.9375 C13.4053923 18.08177965 11.19945086 15.13711149 9 12 C7.3244854 9.92953356 5.59630756 7.9080614 3.875 5.875 C0 1.14186851 0 1.14186851 0 0 Z " fill="#080809" transform="translate(377,380)"/>
<path d="M0 0 C-11.89587328 22.15195222 -11.89587328 22.15195222 -18.52441406 25.13671875 C-23.85700592 26.09400797 -28.79113902 25.30221524 -34 24 C-32.88149133 17.89451445 -31.47755795 12.21815479 -28 7 C-24.02302127 4.44562778 -19.93283442 3.33212622 -15.375 2.1875 C-14.2303125 1.85169922 -13.085625 1.51589844 -11.90625 1.16992188 C-3.56796602 -1.18932201 -3.56796602 -1.18932201 0 0 Z " fill="#0E0E0E" transform="translate(646,377)"/>
<path d="M0 0 C4.21920121 3.67037425 5.40219399 8.74733833 7.25 13.875 C7.62640625 14.86886719 8.0028125 15.86273438 8.390625 16.88671875 C8.74125 17.84964844 9.091875 18.81257813 9.453125 19.8046875 C9.77442383 20.68108887 10.09572266 21.55749023 10.42675781 22.46044922 C11.40365728 26.78826364 10.38070398 29.35851782 8.15234375 33.11328125 C7.42144531 34.16902344 6.69054687 35.22476563 5.9375 36.3125 C4.83728516 37.91544922 4.83728516 37.91544922 3.71484375 39.55078125 C3.14894531 40.35902344 2.58304687 41.16726563 2 42 C-2.93277727 37.2284246 -7.88725093 32.38247221 -8.125 25.25 C-7.80467519 23.81997851 -7.42022021 22.40391753 -7 21 C-6.71125 19.97390625 -6.4225 18.9478125 -6.125 17.890625 C-4.33667709 11.82709262 -2.30751425 5.88416134 0 0 Z " fill="#0C0B0C" transform="translate(509,303)"/>
<path d="M0 0 C1.57043101 0.01330874 3.14079971 0.03717648 4.7109375 0.0703125 C5.51273437 0.07933594 6.31453125 0.08835937 7.140625 0.09765625 C9.12252273 0.12125027 11.10426731 0.15712185 13.0859375 0.1953125 C12.65402116 1.71774101 12.21506188 3.23817169 11.7734375 4.7578125 C11.52980469 5.60472656 11.28617187 6.45164062 11.03515625 7.32421875 C10.72191406 8.27167969 10.40867187 9.21914063 10.0859375 10.1953125 C9.80363281 11.38125 9.52132813 12.5671875 9.23046875 13.7890625 C8.0740704 16.42194338 7.25928202 17.1092553 4.64331055 18.40795898 C1.48165666 19.4659674 -1.6788777 20.32778691 -4.9140625 21.1328125 C-6.02007812 21.43509766 -7.12609375 21.73738281 -8.265625 22.04882812 C-16.26748512 24.1953125 -16.26748512 24.1953125 -19.9140625 24.1953125 C-18.25116908 18.98837747 -15.06923362 14.89454216 -11.9140625 10.5078125 C-11.09421875 9.35055664 -11.09421875 9.35055664 -10.2578125 8.16992188 C-4.59895357 0.2294887 -4.59895357 0.2294887 0 0 Z " fill="#080808" transform="translate(397.9140625,523.8046875)"/>
<path d="M0 0 C3.97372078 1.32457359 4.88936645 3.20293051 7.25 6.625 C8.34054687 8.16027344 8.34054687 8.16027344 9.453125 9.7265625 C12.7573124 16.71875704 8.72183987 24.4849646 6.4375 31.4375 C5.9434668 32.96407227 5.9434668 32.96407227 5.43945312 34.52148438 C4.63136468 37.01601826 3.81809872 39.50873483 3 42 C-0.67442732 38.32557268 -1.88383128 32.92549079 -3.6875 28.125 C-4.11611328 27.02285156 -4.54472656 25.92070313 -4.98632812 24.78515625 C-5.58670898 23.19380859 -5.58670898 23.19380859 -6.19921875 21.5703125 C-6.75355591 20.11262451 -6.75355591 20.11262451 -7.3190918 18.62548828 C-8.38140748 14.52934527 -7.34662689 12.64171694 -5.37109375 8.984375 C-4.73300781 7.91703125 -4.09492188 6.8496875 -3.4375 5.75 C-2.79683594 4.67234375 -2.15617187 3.5946875 -1.49609375 2.484375 C-1.00238281 1.66453125 -0.50867188 0.8446875 0 0 Z " fill="#060606" transform="translate(511,581)"/>
<path d="M0 0 C2.34688889 2.90061128 3.857427 5.6817303 5.26171875 9.1328125 C5.65810547 10.10347656 6.05449219 11.07414063 6.46289062 12.07421875 C6.86701172 13.08097656 7.27113281 14.08773437 7.6875 15.125 C8.10322266 16.13949219 8.51894531 17.15398438 8.94726562 18.19921875 C12 25.72829433 12 25.72829433 12 28 C4.41 28 -3.18 28 -11 28 C-9.02594301 21.41981003 -7.02180036 15.22365085 -4.375 8.9375 C-4.06304687 8.18017578 -3.75109375 7.42285156 -3.4296875 6.64257812 C-1.13970094 1.13970094 -1.13970094 1.13970094 0 0 Z " fill="#ECEDEB" transform="translate(480,715)"/>
<path d="M0 0 C-1.90511351 3.9587071 -3.82597617 7.90924105 -5.76171875 11.85302734 C-6.41778277 13.19530062 -7.06951976 14.53969793 -7.71679688 15.88623047 C-8.64880827 17.82315599 -9.59619393 19.75187047 -10.546875 21.6796875 C-11.39523926 23.42354736 -11.39523926 23.42354736 -12.26074219 25.20263672 C-14.01083015 28.01741884 -14.91616692 28.95433246 -18 30 C-16.46486464 19.80395169 -13.69736887 9.93496549 -11 0 C-6.97959015 -0.69584017 -3.91736581 -1.1700097 0 0 Z " fill="#131313" transform="translate(558,312)"/>
<path d="M0 0 C0.66 0 1.32 0 2 0 C2.34780518 0.64026123 2.69561035 1.28052246 3.05395508 1.94018555 C4.63901911 4.85656606 6.22574316 7.7720402 7.8125 10.6875 C8.35970703 11.69490234 8.90691406 12.70230469 9.47070312 13.74023438 C10.00244141 14.71669922 10.53417969 15.69316406 11.08203125 16.69921875 C11.56905518 17.59471436 12.0560791 18.49020996 12.55786133 19.4128418 C13.53804781 21.17127013 14.58314191 22.89472637 15.68237305 24.58129883 C17 27 17 27 17 31 C12.25732433 29.05154183 9.62914602 25.4587518 6.33203125 21.6640625 C4.87173426 19.99585053 3.3737372 18.35912065 1.82421875 16.7734375 C-2.98467771 11.78143677 -2.98467771 11.78143677 -3.0625 7.8125 C-2.711875 6.884375 -2.36125 5.95625 -2 5 C-1.649375 4.05125 -1.29875 3.1025 -0.9375 2.125 C-0.4734375 1.073125 -0.4734375 1.073125 0 0 Z " fill="#121212" transform="translate(410,343)"/>
<path d="M0 0 C1.98 2.64 3.96 5.28 6 8 C-5.55 8 -17.1 8 -29 8 C-28.67 7.01 -28.34 6.02 -28 5 C-25.85449219 4.09277344 -25.85449219 4.09277344 -23.046875 3.359375 C-22.03496094 3.09382813 -21.02304687 2.82828125 -19.98046875 2.5546875 C-18.38138672 2.15636719 -18.38138672 2.15636719 -16.75 1.75 C-15.69941406 1.46898437 -14.64882813 1.18796875 -13.56640625 0.8984375 C-3.79595403 -1.6029964 -3.79595403 -1.6029964 0 0 Z " fill="#0F0E0F" transform="translate(659,418)"/>
<path d="M0 0 C11.22 0 22.44 0 34 0 C34 0.99 34 1.98 34 3 C30.64711088 3.81783278 27.29248023 4.62829214 23.9375 5.4375 C22.99455078 5.66759766 22.05160156 5.89769531 21.08007812 6.13476562 C18.3916498 6.7811125 15.69885898 7.39883729 13 8 C12.29883057 8.16491943 11.59766113 8.32983887 10.87524414 8.49975586 C9.03125 8.8671875 9.03125 8.8671875 6 9 C4.00390625 7.63671875 4.00390625 7.63671875 2.5625 5.6875 C1.82193359 4.73423828 1.82193359 4.73423828 1.06640625 3.76171875 C0 2 0 2 0 0 Z " fill="#121212" transform="translate(359,499)"/>
<path d="M0 0 C0.66 0 1.32 0 2 0 C0.23076339 9.81122119 -2.41227214 19.37997353 -5 29 C-8.63 29.66 -12.26 30.32 -16 31 C-4.72417959 6.55627139 -4.72417959 6.55627139 0 0 Z " fill="#0D0C0C" transform="translate(481,583)"/>
<path d="M0 0 C2 0 2 0 3.41015625 1.3984375 C4.22806641 2.37683594 4.22806641 2.37683594 5.0625 3.375 C8.61206431 7.57332922 12.31977733 11.59714659 16.08203125 15.60546875 C18.06094462 18.07608768 19.19213452 19.94268874 20 23 C19.5390625 25.23828125 19.5390625 25.23828125 18.625 27.3125 C18.32851563 28.00988281 18.03203125 28.70726562 17.7265625 29.42578125 C17.36691406 30.20501953 17.36691406 30.20501953 17 31 C16.34 31 15.68 31 15 31 C14.65219482 30.35973877 14.30438965 29.71947754 13.94604492 29.05981445 C12.36098089 26.14343394 10.77425684 23.2279598 9.1875 20.3125 C8.36668945 18.80139648 8.36668945 18.80139648 7.52929688 17.25976562 C6.99755859 16.28330078 6.46582031 15.30683594 5.91796875 14.30078125 C5.43094482 13.40528564 4.9439209 12.50979004 4.44213867 11.5871582 C3.46195219 9.82872987 2.41685809 8.10527363 1.31762695 6.41870117 C0 4 0 4 0 0 Z " fill="#0F0F0F" transform="translate(596,551)"/>
<path d="M0 0 C0.66 0 1.32 0 2 0 C0.75297849 6.35450323 -0.57364259 12.68327435 -2 19 C-2.33 19 -2.66 19 -3 19 C-3 16.69 -3 14.38 -3 12 C-4.98 12.99 -4.98 12.99 -7 14 C-5.58163643 8.8423143 -3.32608425 4.20024742 0 0 Z " fill="#202020" transform="translate(481,583)"/>
<path d="M0 0 C0.33 0 0.66 0 1 0 C1 2.97 1 5.94 1 9 C0.67 8.34 0.34 7.68 0 7 C-1.32 8.32 -2.64 9.64 -4 11 C-4.66 10.67 -5.32 10.34 -6 10 C-5.02526874 8.33073546 -4.04510211 6.66464358 -3.0625 5 C-2.24458984 3.6078125 -2.24458984 3.6078125 -1.41015625 2.1875 C-0.71212891 1.1046875 -0.71212891 1.1046875 0 0 Z " fill="#E3DEE1" transform="translate(414,727)"/>
<path d="M0 0 C0.99 0.33 1.98 0.66 3 1 C2.0409375 1.495 2.0409375 1.495 1.0625 2 C-2.0552764 5.02329832 -1.72043064 7.73656724 -2 12 C-2.66 11.67 -3.32 11.34 -4 11 C-3.91291331 9.54054712 -3.80473093 8.08234132 -3.6875 6.625 C-3.62949219 5.81289063 -3.57148437 5.00078125 -3.51171875 4.1640625 C-3 2 -3 2 0 0 Z " fill="#BDBCBF" transform="translate(564,541)"/>
</svg>
